REM DIRINDEX 1\2\6,1\2\4\7,1\2\4\8,1\2\5\9,1\3\12,1\3\10\13,1\3\10\14,1\3\10\15,1\3\11\16,1\3\11\17
REM DIRNAME folder01,folder02,folder03,folder04,folder05,folder06,folder07,folder08,folder09,folder10,folder11,folder12,folder13,folder14,folder15,folder16,folder17
TITLE ""
FILE "157.mp3" MP3
  TRACK 01 AUDIO
    TITLE "6:cjc048_03878"
    INDEX 01 00:00:00
  TRACK 02 AUDIO
    TITLE "9:cjc048_03879"
    INDEX 01 00:01:68
  TRACK 03 AUDIO
    TITLE "0:"
    INDEX 01 00:03:21
  TRACK 04 AUDIO
    TITLE "9:cjc048_03880"
    INDEX 01 00:03:64
  TRACK 05 AUDIO
    TITLE "0:"
    INDEX 01 00:05:09
  TRACK 06 AUDIO
    TITLE "9:cjc048_03881"
    INDEX 01 00:05:50
  TRACK 07 AUDIO
    TITLE "0:"
    INDEX 01 00:06:61
  TRACK 08 AUDIO
    TITLE "9:cjc048_03882"
    INDEX 01 00:07:29
  TRACK 09 AUDIO
    TITLE "0:"
    INDEX 01 00:08:54
  TRACK 10 AUDIO
    TITLE "9:cjc048_03883"
    INDEX 01 00:09:20
  TRACK 11 AUDIO
    TITLE "0:"
    INDEX 01 00:10:45
  TRACK 12 AUDIO
    TITLE "9:cjc048_03884"
    INDEX 01 00:11:17
  TRACK 13 AUDIO
    TITLE "0:"
    INDEX 01 00:12:54
  TRACK 14 AUDIO
    TITLE "9:cjc048_03885"
    INDEX 01 00:13:22
  TRACK 15 AUDIO
    TITLE "0:"
    INDEX 01 00:14:45
  TRACK 16 AUDIO
    TITLE "9:cjc048_03886"
    INDEX 01 00:15:13
  TRACK 17 AUDIO
    TITLE "0:"
    INDEX 01 00:16:36
  TRACK 18 AUDIO
    TITLE "9:cjc048_03887"
    INDEX 01 00:17:04
  TRACK 19 AUDIO
    TITLE "0:"
    INDEX 01 00:18:21
  TRACK 20 AUDIO
    TITLE "9:cjc048_03888"
    INDEX 01 00:18:64
  TRACK 21 AUDIO
    TITLE "0:"
    INDEX 01 00:20:30
  TRACK 22 AUDIO
    TITLE "9:cjc048_03889"
    INDEX 01 00:21:00
  TRACK 23 AUDIO
    TITLE "0:"
    INDEX 01 00:22:07
  TRACK 24 AUDIO
    TITLE "9:cjc048_03890"
    INDEX 01 00:22:50
  TRACK 25 AUDIO
    TITLE "0:"
    INDEX 01 00:23:63
  TRACK 26 AUDIO
    TITLE "9:cjc048_03891"
    INDEX 01 00:24:35
  TRACK 27 AUDIO
    TITLE "0:"
    INDEX 01 00:25:54
  TRACK 28 AUDIO
    TITLE "9:cjc048_03892"
    INDEX 01 00:26:24
  TRACK 29 AUDIO
    TITLE "0:"
    INDEX 01 00:27:57
  TRACK 30 AUDIO
    TITLE "9:cjc048_03893"
    INDEX 01 00:28:27
  TRACK 31 AUDIO
    TITLE "0:"
    INDEX 01 00:29:42
  TRACK 32 AUDIO
    TITLE "9:cjc048_03894"
    INDEX 01 00:30:12
  TRACK 33 AUDIO
    TITLE "0:"
    INDEX 01 00:31:33
  TRACK 34 AUDIO
    TITLE "9:cjc048_03895"
    INDEX 01 00:32:01
  TRACK 35 AUDIO
    TITLE "0:"
    INDEX 01 00:33:15
  TRACK 36 AUDIO
    TITLE "9:cjc048_03896"
    INDEX 01 00:33:58
  TRACK 37 AUDIO
    TITLE "0:"
    INDEX 01 00:34:69
  TRACK 38 AUDIO
    TITLE "9:cjc048_03897"
    INDEX 01 00:35:47
  TRACK 39 AUDIO
    TITLE "0:"
    INDEX 01 00:36:64
  TRACK 40 AUDIO
    TITLE "9:cjc048_03898"
    INDEX 01 00:37:32
  TRACK 41 AUDIO
    TITLE "0:"
    INDEX 01 00:38:51
  TRACK 42 AUDIO
    TITLE "9:cjc048_03899"
    INDEX 01 00:39:15
  TRACK 43 AUDIO
    TITLE "0:"
    INDEX 01 00:40:42
  TRACK 44 AUDIO
    TITLE "9:cjc048_03900"
    INDEX 01 00:41:12
  TRACK 45 AUDIO
    TITLE "0:"
    INDEX 01 00:42:37
  TRACK 46 AUDIO
    TITLE "9:cjc048_03901"
    INDEX 01 00:43:07
  TRACK 47 AUDIO
    TITLE "0:"
    INDEX 01 00:44:24
  TRACK 48 AUDIO
    TITLE "9:cjc048_03902"
    INDEX 01 00:45:04
  TRACK 49 AUDIO
    TITLE "0:"
    INDEX 01 00:46:21
  TRACK 50 AUDIO
    TITLE "9:cjc048_03903"
    INDEX 01 00:46:64
  TRACK 51 AUDIO
    TITLE "0:"
    INDEX 01 00:48:12
  TRACK 52 AUDIO
    TITLE "9:cjc048_03904"
    INDEX 01 00:48:55
  TRACK 53 AUDIO
    TITLE "0:"
    INDEX 01 00:50:03
  TRACK 54 AUDIO
    TITLE "9:cjc048_03905"
    INDEX 01 00:50:46
  TRACK 55 AUDIO
    TITLE "0:"
    INDEX 01 00:52:00
  TRACK 56 AUDIO
    TITLE "9:cjc048_03906"
    INDEX 01 00:52:47
  TRACK 57 AUDIO
    TITLE "0:"
    INDEX 01 00:54:03
  TRACK 58 AUDIO
    TITLE "9:cjc048_03907"
    INDEX 01 00:54:46
  TRACK 59 AUDIO
    TITLE "0:"
    INDEX 01 00:55:57
  TRACK 60 AUDIO
    TITLE "9:cjc048_03908"
    INDEX 01 00:56:27
  TRACK 61 AUDIO
    TITLE "0:"
    INDEX 01 00:57:45
  TRACK 62 AUDIO
    TITLE "9:cjc048_03909"
    INDEX 01 00:58:13
  TRACK 63 AUDIO
    TITLE "0:"
    INDEX 01 00:59:39
  TRACK 64 AUDIO
    TITLE "9:cjc048_03910"
    INDEX 01 01:00:12
  TRACK 65 AUDIO
    TITLE "0:"
    INDEX 01 01:01:21
  TRACK 66 AUDIO
    TITLE "9:cjc048_03911"
    INDEX 01 01:01:60
  TRACK 67 AUDIO
    TITLE "0:"
    INDEX 01 01:03:00
  TRACK 68 AUDIO
    TITLE "9:cjc048_03912"
    INDEX 01 01:03:45
  TRACK 69 AUDIO
    TITLE "0:"
    INDEX 01 01:04:58
  TRACK 70 AUDIO
    TITLE "9:cjc048_03913"
    INDEX 01 01:05:24
  TRACK 71 AUDIO
    TITLE "0:"
    INDEX 01 01:06:36
  TRACK 72 AUDIO
    TITLE "9:cjc048_03914"
    INDEX 01 01:07:04
  TRACK 73 AUDIO
    TITLE "0:"
    INDEX 01 01:08:15
  TRACK 74 AUDIO
    TITLE "9:cjc048_03915"
    INDEX 01 01:08:60
  TRACK 75 AUDIO
    TITLE "0:"
    INDEX 01 01:10:00
  TRACK 76 AUDIO
    TITLE "9:cjc048_03916"
    INDEX 01 01:10:41
  TRACK 77 AUDIO
    TITLE "0:"
    INDEX 01 01:11:60
  TRACK 78 AUDIO
    TITLE "9:cjc048_03917"
    INDEX 01 01:12:26
  TRACK 79 AUDIO
    TITLE "0:"
    INDEX 01 01:13:45
  TRACK 80 AUDIO
    TITLE "9:cjc048_03918"
    INDEX 01 01:14:14
  TRACK 81 AUDIO
    TITLE "0:"
    INDEX 01 01:15:39
  TRACK 82 AUDIO
    TITLE "9:cjc048_03919"
    INDEX 01 01:16:05
  TRACK 83 AUDIO
    TITLE "0:"
    INDEX 01 01:17:18
  TRACK 84 AUDIO
    TITLE "9:cjc048_03920"
    INDEX 01 01:17:59
  TRACK 85 AUDIO
    TITLE "0:"
    INDEX 01 01:19:13
  TRACK 86 AUDIO
    TITLE "9:cjc048_03921"
    INDEX 01 01:19:54
  TRACK 87 AUDIO
    TITLE "0:"
    INDEX 01 01:20:67
